<svg width="1440" height="900" xmlns="http://www.w3.org/2000/svg"><path d="M895,467L950,416L866,359Z" fill="rgb(152,24,27)" stroke="rgb(152,24,27)" stroke-width="1.51"></path><path d="M1009,244L866,274L866,359Z" fill="rgb(160,31,32)" stroke="rgb(160,31,32)" stroke-width="1.51"></path><path d="M895,467L987,546L950,416Z" fill="rgb(143,21,24)" stroke="rgb(143,21,24)" stroke-width="1.51"></path><path d="M950,416L1009,244L866,359Z" fill="rgb(155,28,29)" stroke="rgb(155,28,29)" stroke-width="1.51"></path><path d="M1145,430L1009,244L950,416Z" fill="rgb(145,25,27)" stroke="rgb(145,25,27)" stroke-width="1.51"></path><path d="M675,367L895,467L866,359Z" fill="rgb(160,26,29)" stroke="rgb(160,26,29)" stroke-width="1.51"></path><path d="M702,550L829,603L895,467Z" fill="rgb(145,22,25)" stroke="rgb(145,22,25)" stroke-width="1.51"></path><path d="M895,467L829,603L987,546Z" fill="rgb(138,20,23)" stroke="rgb(138,20,23)" stroke-width="1.51"></path><path d="M866,274L675,367L866,359Z" fill="rgb(166,30,32)" stroke="rgb(166,30,32)" stroke-width="1.51"></path><path d="M987,546L1071,550L950,416Z" fill="rgb(135,20,23)" stroke="rgb(135,20,23)" stroke-width="1.51"></path><path d="M1062,683L1071,550L987,546Z" fill="rgb(121,18,21)" stroke="rgb(121,18,21)" stroke-width="1.51"></path><path d="M675,367L702,550L895,467Z" fill="rgb(159,23,27)" stroke="rgb(159,23,27)" stroke-width="1.51"></path><path d="M1071,550L1145,430L950,416Z" fill="rgb(136,20,24)" stroke="rgb(136,20,24)" stroke-width="1.51"></path><path d="M829,603L937,666L987,546Z" fill="rgb(129,20,23)" stroke="rgb(129,20,23)" stroke-width="1.51"></path><path d="M859,789L937,666L829,603Z" fill="rgb(123,19,21)" stroke="rgb(123,19,21)" stroke-width="1.51"></path><path d="M1009,244L951,150L866,274Z" fill="rgb(163,34,34)" stroke="rgb(163,34,34)" stroke-width="1.51"></path><path d="M1145,430L1079,226L1009,244Z" fill="rgb(147,28,30)" stroke="rgb(147,28,30)" stroke-width="1.51"></path><path d="M1079,226L951,150L1009,244Z" fill="rgb(159,33,34)" stroke="rgb(159,33,34)" stroke-width="1.51"></path><path d="M866,274L670,211L675,367Z" fill="rgb(175,34,35)" stroke="rgb(175,34,35)" stroke-width="1.51"></path><path d="M675,367L625,495L702,550Z" fill="rgb(164,26,29)" stroke="rgb(164,26,29)" stroke-width="1.51"></path><path d="M675,367L611,425L625,495Z" fill="rgb(169,29,31)" stroke="rgb(169,29,31)" stroke-width="1.51"></path><path d="M711,116L670,211L866,274Z" fill="rgb(180,36,37)" stroke="rgb(180,36,37)" stroke-width="1.51"></path><path d="M675,367L548,295L611,425Z" fill="rgb(176,33,34)" stroke="rgb(176,33,34)" stroke-width="1.51"></path><path d="M951,150L896,103L866,274Z" fill="rgb(170,34,36)" stroke="rgb(170,34,36)" stroke-width="1.51"></path><path d="M970,13L896,103L951,150Z" fill="rgb(172,33,37)" stroke="rgb(172,33,37)" stroke-width="1.51"></path><path d="M1145,430L1199,355L1079,226Z" fill="rgb(144,26,28)" stroke="rgb(144,26,28)" stroke-width="1.51"></path><path d="M1254,476L1199,355L1145,430Z" fill="rgb(138,22,24)" stroke="rgb(138,22,24)" stroke-width="1.51"></path><path d="M937,666L1062,683L987,546Z" fill="rgb(119,18,21)" stroke="rgb(119,18,21)" stroke-width="1.51"></path><path d="M1071,550L1254,476L1145,430Z" fill="rgb(131,20,23)" stroke="rgb(131,20,23)" stroke-width="1.51"></path><path d="M702,550L718,680L829,603Z" fill="rgb(141,21,25)" stroke="rgb(141,21,25)" stroke-width="1.51"></path><path d="M937,666L956,773L1062,683Z" fill="rgb(115,17,20)" stroke="rgb(115,17,20)" stroke-width="1.51"></path><path d="M630,666L718,680L702,550Z" fill="rgb(143,22,25)" stroke="rgb(143,22,25)" stroke-width="1.51"></path><path d="M896,103L711,116L866,274Z" fill="rgb(177,35,37)" stroke="rgb(177,35,37)" stroke-width="1.51"></path><path d="M670,211L548,295L675,367Z" fill="rgb(181,37,37)" stroke="rgb(181,37,37)" stroke-width="1.51"></path><path d="M611,425L505,512L625,495Z" fill="rgb(167,29,31)" stroke="rgb(167,29,31)" stroke-width="1.51"></path><path d="M597,114L548,295L670,211Z" fill="rgb(188,41,41)" stroke="rgb(188,41,41)" stroke-width="1.51"></path><path d="M1228,613L1254,476L1071,550Z" fill="rgb(124,19,21)" stroke="rgb(124,19,21)" stroke-width="1.51"></path><path d="M505,512L630,666L625,495Z" fill="rgb(157,27,29)" stroke="rgb(157,27,29)" stroke-width="1.51"></path><path d="M625,495L630,666L702,550Z" fill="rgb(152,24,27)" stroke="rgb(152,24,27)" stroke-width="1.51"></path><path d="M859,789L829,603L718,680Z" fill="rgb(129,19,22)" stroke="rgb(129,19,22)" stroke-width="1.51"></path><path d="M859,789L956,773L937,666Z" fill="rgb(120,18,21)" stroke="rgb(120,18,21)" stroke-width="1.51"></path><path d="M1062,683L1228,613L1071,550Z" fill="rgb(115,17,20)" stroke="rgb(115,17,20)" stroke-width="1.51"></path><path d="M956,773L1067,738L1062,683Z" fill="rgb(112,17,20)" stroke="rgb(112,17,20)" stroke-width="1.51"></path><path d="M700,751L859,789L718,680Z" fill="rgb(133,20,23)" stroke="rgb(133,20,23)" stroke-width="1.51"></path><path d="M711,116L597,114L670,211Z" fill="rgb(189,39,40)" stroke="rgb(189,39,40)" stroke-width="1.51"></path><path d="M896,103L756,46L711,116Z" fill="rgb(184,35,38)" stroke="rgb(184,35,38)" stroke-width="1.51"></path><path d="M1199,355L1240,229L1079,226Z" fill="rgb(149,30,31)" stroke="rgb(149,30,31)" stroke-width="1.51"></path><path d="M1079,226L1157,111L951,150Z" fill="rgb(158,32,34)" stroke="rgb(158,32,34)" stroke-width="1.51"></path><path d="M896,103L844,-33L756,46Z" fill="rgb(184,34,39)" stroke="rgb(184,34,39)" stroke-width="1.51"></path><path d="M1370,386L1240,229L1199,355Z" fill="rgb(145,27,29)" stroke="rgb(145,27,29)" stroke-width="1.51"></path><path d="M1067,738L1228,613L1062,683Z" fill="rgb(108,16,19)" stroke="rgb(108,16,19)" stroke-width="1.51"></path><path d="M630,666L700,751L718,680Z" fill="rgb(137,21,24)" stroke="rgb(137,21,24)" stroke-width="1.51"></path><path d="M1240,229L1157,111L1079,226Z" fill="rgb(155,32,33)" stroke="rgb(155,32,33)" stroke-width="1.51"></path><path d="M447,335L505,512L611,425Z" fill="rgb(175,33,34)" stroke="rgb(175,33,34)" stroke-width="1.51"></path><path d="M1157,111L970,13L951,150Z" fill="rgb(165,32,35)" stroke="rgb(165,32,35)" stroke-width="1.51"></path><path d="M756,46L597,114L711,116Z" fill="rgb(192,37,40)" stroke="rgb(192,37,40)" stroke-width="1.51"></path><path d="M756,46L574,-38L597,114Z" fill="rgb(197,38,42)" stroke="rgb(197,38,42)" stroke-width="1.51"></path><path d="M970,13L844,-33L896,103Z" fill="rgb(179,33,38)" stroke="rgb(179,33,38)" stroke-width="1.51"></path><path d="M548,295L447,335L611,425Z" fill="rgb(180,36,37)" stroke="rgb(180,36,37)" stroke-width="1.51"></path><path d="M421,225L447,335L548,295Z" fill="rgb(189,43,41)" stroke="rgb(189,43,41)" stroke-width="1.51"></path><path d="M1228,613L1334,540L1254,476Z" fill="rgb(124,19,21)" stroke="rgb(124,19,21)" stroke-width="1.51"></path><path d="M1254,476L1370,386L1199,355Z" fill="rgb(139,22,25)" stroke="rgb(139,22,25)" stroke-width="1.51"></path><path d="M1395,672L1334,540L1228,613Z" fill="rgb(116,17,20)" stroke="rgb(116,17,20)" stroke-width="1.51"></path><path d="M1334,540L1370,386L1254,476Z" fill="rgb(134,20,23)" stroke="rgb(134,20,23)" stroke-width="1.51"></path><path d="M1252,18L1132,-21L1157,111Z" fill="rgb(164,30,35)" stroke="rgb(164,30,35)" stroke-width="1.51"></path><path d="M630,666L626,808L700,751Z" fill="rgb(139,22,25)" stroke="rgb(139,22,25)" stroke-width="1.51"></path><path d="M700,751L764,882L859,789Z" fill="rgb(131,20,23)" stroke="rgb(131,20,23)" stroke-width="1.51"></path><path d="M468,729L626,808L630,666Z" fill="rgb(142,25,27)" stroke="rgb(142,25,27)" stroke-width="1.51"></path><path d="M505,512L451,604L630,666Z" fill="rgb(155,28,30)" stroke="rgb(155,28,30)" stroke-width="1.51"></path><path d="M378,565L451,604L505,512Z" fill="rgb(163,32,33)" stroke="rgb(163,32,33)" stroke-width="1.51"></path><path d="M626,808L764,882L700,751Z" fill="rgb(136,21,24)" stroke="rgb(136,21,24)" stroke-width="1.51"></path><path d="M859,789L979,923L956,773Z" fill="rgb(119,18,21)" stroke="rgb(119,18,21)" stroke-width="1.51"></path><path d="M956,773L979,923L1067,738Z" fill="rgb(114,17,20)" stroke="rgb(114,17,20)" stroke-width="1.51"></path><path d="M1157,111L1132,-21L970,13Z" fill="rgb(164,30,35)" stroke="rgb(164,30,35)" stroke-width="1.51"></path><path d="M970,13L870,-86L844,-33Z" fill="rgb(181,32,39)" stroke="rgb(181,32,39)" stroke-width="1.51"></path><path d="M1269,80L1157,111L1240,229Z" fill="rgb(157,32,34)" stroke="rgb(157,32,34)" stroke-width="1.51"></path><path d="M960,-105L870,-86L970,13Z" fill="rgb(178,32,38)" stroke="rgb(178,32,38)" stroke-width="1.51"></path><path d="M761,-132L574,-38L756,46Z" fill="rgb(197,35,41)" stroke="rgb(197,35,41)" stroke-width="1.51"></path><path d="M1348,95L1269,80L1240,229Z" fill="rgb(158,32,34)" stroke="rgb(158,32,34)" stroke-width="1.51"></path><path d="M322,403L378,565L505,512Z" fill="rgb(174,34,35)" stroke="rgb(174,34,35)" stroke-width="1.51"></path><path d="M451,153L421,225L548,295Z" fill="rgb(193,46,44)" stroke="rgb(193,46,44)" stroke-width="1.51"></path><path d="M451,153L548,295L597,114Z" fill="rgb(193,44,43)" stroke="rgb(193,44,43)" stroke-width="1.51"></path><path d="M574,-38L451,153L597,114Z" fill="rgb(200,42,44)" stroke="rgb(200,42,44)" stroke-width="1.51"></path><path d="M1370,386L1400,300L1240,229Z" fill="rgb(146,28,29)" stroke="rgb(146,28,29)" stroke-width="1.51"></path><path d="M1468,245L1400,300L1539,374Z" fill="rgb(146,28,29)" stroke="rgb(146,28,29)" stroke-width="1.51"></path><path d="M1132,-21L960,-105L970,13Z" fill="rgb(171,31,36)" stroke="rgb(171,31,36)" stroke-width="1.51"></path><path d="M825,926L979,923L859,789Z" fill="rgb(122,18,21)" stroke="rgb(122,18,21)" stroke-width="1.51"></path><path d="M1067,738L1252,823L1228,613Z" fill="rgb(108,16,19)" stroke="rgb(108,16,19)" stroke-width="1.51"></path><path d="M764,882L825,926L859,789Z" fill="rgb(128,19,22)" stroke="rgb(128,19,22)" stroke-width="1.51"></path><path d="M685,1006L825,926L764,882Z" fill="rgb(133,20,23)" stroke="rgb(133,20,23)" stroke-width="1.51"></path><path d="M1132,-21L1140,-157L960,-105Z" fill="rgb(166,30,36)" stroke="rgb(166,30,36)" stroke-width="1.51"></path><path d="M1269,80L1252,18L1157,111Z" fill="rgb(162,31,35)" stroke="rgb(162,31,35)" stroke-width="1.51"></path><path d="M1348,95L1252,18L1269,80Z" fill="rgb(162,30,35)" stroke="rgb(162,30,35)" stroke-width="1.51"></path><path d="M626,808L600,863L764,882Z" fill="rgb(138,22,25)" stroke="rgb(138,22,25)" stroke-width="1.51"></path><path d="M451,604L468,729L630,666Z" fill="rgb(146,27,29)" stroke="rgb(146,27,29)" stroke-width="1.51"></path><path d="M451,604L319,649L468,729Z" fill="rgb(151,31,32)" stroke="rgb(151,31,32)" stroke-width="1.51"></path><path d="M322,403L505,512L447,335Z" fill="rgb(181,37,37)" stroke="rgb(181,37,37)" stroke-width="1.51"></path><path d="M487,871L600,863L626,808Z" fill="rgb(142,25,27)" stroke="rgb(142,25,27)" stroke-width="1.51"></path><path d="M1145,951L1252,823L1067,738Z" fill="rgb(108,16,19)" stroke="rgb(108,16,19)" stroke-width="1.51"></path><path d="M761,-132L844,-33L870,-86Z" fill="rgb(187,33,39)" stroke="rgb(187,33,39)" stroke-width="1.51"></path><path d="M761,-132L756,46L844,-33Z" fill="rgb(190,34,40)" stroke="rgb(190,34,40)" stroke-width="1.51"></path><path d="M1400,300L1348,95L1240,229Z" fill="rgb(153,32,33)" stroke="rgb(153,32,33)" stroke-width="1.51"></path><path d="M960,-105L761,-132L870,-86Z" fill="rgb(184,33,39)" stroke="rgb(184,33,39)" stroke-width="1.51"></path><path d="M1334,540L1453,551L1370,386Z" fill="rgb(130,20,22)" stroke="rgb(130,20,22)" stroke-width="1.51"></path><path d="M1323,821L1395,672L1228,613Z" fill="rgb(108,16,19)" stroke="rgb(108,16,19)" stroke-width="1.51"></path><path d="M326,284L322,403L447,335Z" fill="rgb(190,43,42)" stroke="rgb(190,43,42)" stroke-width="1.51"></path><path d="M326,284L447,335L421,225Z" fill="rgb(192,45,43)" stroke="rgb(192,45,43)" stroke-width="1.51"></path><path d="M1395,672L1453,551L1334,540Z" fill="rgb(118,18,21)" stroke="rgb(118,18,21)" stroke-width="1.51"></path><path d="M309,156L421,225L451,153Z" fill="rgb(200,48,46)" stroke="rgb(200,48,46)" stroke-width="1.51"></path><path d="M309,156L326,284L421,225Z" fill="rgb(199,49,47)" stroke="rgb(199,49,47)" stroke-width="1.51"></path><path d="M1252,823L1323,821L1228,613Z" fill="rgb(108,16,19)" stroke="rgb(108,16,19)" stroke-width="1.51"></path><path d="M1286,896L1323,821L1252,823Z" fill="rgb(108,16,19)" stroke="rgb(108,16,19)" stroke-width="1.51"></path><path d="M1110,1020L1145,951L979,923Z" fill="rgb(108,16,19)" stroke="rgb(108,16,19)" stroke-width="1.51"></path><path d="M979,923L1145,951L1067,738Z" fill="rgb(109,16,19)" stroke="rgb(109,16,19)" stroke-width="1.51"></path><path d="M1400,300L1473,167L1348,95Z" fill="rgb(155,32,33)" stroke="rgb(155,32,33)" stroke-width="1.51"></path><path d="M1539,374L1400,300L1370,386Z" fill="rgb(143,25,27)" stroke="rgb(143,25,27)" stroke-width="1.51"></path><path d="M468,729L487,871L626,808Z" fill="rgb(145,27,28)" stroke="rgb(145,27,28)" stroke-width="1.51"></path><path d="M600,863L685,1006L764,882Z" fill="rgb(137,21,24)" stroke="rgb(137,21,24)" stroke-width="1.51"></path><path d="M295,742L487,871L468,729Z" fill="rgb(149,30,31)" stroke="rgb(149,30,31)" stroke-width="1.51"></path><path d="M761,-132L620,-144L574,-38Z" fill="rgb(200,37,43)" stroke="rgb(200,37,43)" stroke-width="1.51"></path><path d="M412,-31L309,156L451,153Z" fill="rgb(206,47,48)" stroke="rgb(206,47,48)" stroke-width="1.51"></path><path d="M1210,-181L1140,-157L1132,-21Z" fill="rgb(166,30,36)" stroke="rgb(166,30,36)" stroke-width="1.51"></path><path d="M960,-105L1140,-157L761,-132Z" fill="rgb(177,32,38)" stroke="rgb(177,32,38)" stroke-width="1.51"></path><path d="M761,-132L1210,-181L620,-144Z" fill="rgb(184,33,39)" stroke="rgb(184,33,39)" stroke-width="1.51"></path><path d="M1210,-181L1132,-21L1252,18Z" fill="rgb(166,30,36)" stroke="rgb(166,30,36)" stroke-width="1.51"></path><path d="M378,565L319,649L451,604Z" fill="rgb(160,33,34)" stroke="rgb(160,33,34)" stroke-width="1.51"></path><path d="M230,607L319,649L378,565Z" fill="rgb(163,33,35)" stroke="rgb(163,33,35)" stroke-width="1.51"></path><path d="M1145,951L1286,896L1252,823Z" fill="rgb(108,16,19)" stroke="rgb(108,16,19)" stroke-width="1.51"></path><path d="M1348,95L1414,17L1252,18Z" fill="rgb(164,30,35)" stroke="rgb(164,30,35)" stroke-width="1.51"></path><path d="M1468,245L1473,167L1400,300Z" fill="rgb(151,32,32)" stroke="rgb(151,32,32)" stroke-width="1.51"></path><path d="M1579,127L1473,167L1468,245Z" fill="rgb(155,32,33)" stroke="rgb(155,32,33)" stroke-width="1.51"></path><path d="M819,1041L996,1030L979,923Z" fill="rgb(119,18,21)" stroke="rgb(119,18,21)" stroke-width="1.51"></path><path d="M1145,951L1245,1060L1286,896Z" fill="rgb(108,16,19)" stroke="rgb(108,16,19)" stroke-width="1.51"></path><path d="M819,1041L979,923L825,926Z" fill="rgb(123,19,21)" stroke="rgb(123,19,21)" stroke-width="1.51"></path><path d="M556,994L685,1006L600,863Z" fill="rgb(140,24,26)" stroke="rgb(140,24,26)" stroke-width="1.51"></path><path d="M685,1006L819,1041L825,926Z" fill="rgb(131,20,23)" stroke="rgb(131,20,23)" stroke-width="1.51"></path><path d="M197,560L230,607L378,565Z" fill="rgb(169,34,36)" stroke="rgb(169,34,36)" stroke-width="1.51"></path><path d="M326,284L156,371L322,403Z" fill="rgb(193,42,42)" stroke="rgb(193,42,42)" stroke-width="1.51"></path><path d="M412,-31L451,153L574,-38Z" fill="rgb(206,44,47)" stroke="rgb(206,44,47)" stroke-width="1.51"></path><path d="M1453,551L1539,374L1370,386Z" fill="rgb(136,21,24)" stroke="rgb(136,21,24)" stroke-width="1.51"></path><path d="M1616,414L1539,374L1453,551Z" fill="rgb(136,20,23)" stroke="rgb(136,20,23)" stroke-width="1.51"></path><path d="M996,1030L1110,1020L979,923Z" fill="rgb(112,17,20)" stroke="rgb(112,17,20)" stroke-width="1.51"></path><path d="M490,-152L412,-31L574,-38Z" fill="rgb(207,43,47)" stroke="rgb(207,43,47)" stroke-width="1.51"></path><path d="M1468,38L1414,17L1348,95Z" fill="rgb(163,30,35)" stroke="rgb(163,30,35)" stroke-width="1.51"></path><path d="M1395,672L1502,683L1453,551Z" fill="rgb(113,17,20)" stroke="rgb(113,17,20)" stroke-width="1.51"></path><path d="M1515,822L1502,683L1395,672Z" fill="rgb(108,16,19)" stroke="rgb(108,16,19)" stroke-width="1.51"></path><path d="M1515,822L1395,672L1323,821Z" fill="rgb(108,16,19)" stroke="rgb(108,16,19)" stroke-width="1.51"></path><path d="M1140,-157L1210,-181L761,-132Z" fill="rgb(170,31,36)" stroke="rgb(170,31,36)" stroke-width="1.51"></path><path d="M1361,-103L1210,-181L1252,18Z" fill="rgb(166,30,36)" stroke="rgb(166,30,36)" stroke-width="1.51"></path><path d="M685,1006L489,1062L819,1041Z" fill="rgb(138,22,25)" stroke="rgb(138,22,25)" stroke-width="1.51"></path><path d="M487,871L556,994L600,863Z" fill="rgb(144,26,28)" stroke="rgb(144,26,28)" stroke-width="1.51"></path><path d="M489,1062L556,994L487,871Z" fill="rgb(145,27,29)" stroke="rgb(145,27,29)" stroke-width="1.51"></path><path d="M309,156L240,223L326,284Z" fill="rgb(202,49,47)" stroke="rgb(202,49,47)" stroke-width="1.51"></path><path d="M235,152L240,223L309,156Z" fill="rgb(206,48,48)" stroke="rgb(206,48,48)" stroke-width="1.51"></path><path d="M319,649L295,742L468,729Z" fill="rgb(152,32,33)" stroke="rgb(152,32,33)" stroke-width="1.51"></path><path d="M230,607L295,742L319,649Z" fill="rgb(156,32,34)" stroke="rgb(156,32,34)" stroke-width="1.51"></path><path d="M1414,17L1361,-103L1252,18Z" fill="rgb(166,30,36)" stroke="rgb(166,30,36)" stroke-width="1.51"></path><path d="M1473,167L1468,38L1348,95Z" fill="rgb(160,31,34)" stroke="rgb(160,31,34)" stroke-width="1.51"></path><path d="M1579,127L1468,38L1473,167Z" fill="rgb(159,31,34)" stroke="rgb(159,31,34)" stroke-width="1.51"></path><path d="M1286,896L1392,881L1323,821Z" fill="rgb(108,16,19)" stroke="rgb(108,16,19)" stroke-width="1.51"></path><path d="M1318,1020L1392,881L1286,896Z" fill="rgb(108,16,19)" stroke="rgb(108,16,19)" stroke-width="1.51"></path><path d="M412,-31L373,-43L309,156Z" fill="rgb(212,48,50)" stroke="rgb(212,48,50)" stroke-width="1.51"></path><path d="M490,-152L373,-43L412,-31Z" fill="rgb(211,45,49)" stroke="rgb(211,45,49)" stroke-width="1.51"></path><path d="M1210,-181L490,-152L620,-144Z" fill="rgb(191,34,40)" stroke="rgb(191,34,40)" stroke-width="1.51"></path><path d="M620,-144L490,-152L574,-38Z" fill="rgb(204,41,45)" stroke="rgb(204,41,45)" stroke-width="1.51"></path><path d="M197,560L378,565L322,403Z" fill="rgb(176,36,37)" stroke="rgb(176,36,37)" stroke-width="1.51"></path><path d="M1494,-114L1361,-103L1414,17Z" fill="rgb(166,30,36)" stroke="rgb(166,30,36)" stroke-width="1.51"></path><path d="M156,371L197,560L322,403Z" fill="rgb(187,37,39)" stroke="rgb(187,37,39)" stroke-width="1.51"></path><path d="M373,-43L235,152L309,156Z" fill="rgb(210,48,49)" stroke="rgb(210,48,49)" stroke-width="1.51"></path><path d="M213,902L293,919L295,742Z" fill="rgb(156,32,34)" stroke="rgb(156,32,34)" stroke-width="1.51"></path><path d="M156,371L326,284L240,223Z" fill="rgb(198,45,45)" stroke="rgb(198,45,45)" stroke-width="1.51"></path><path d="M1671,289L1579,127L1468,245Z" fill="rgb(153,32,33)" stroke="rgb(153,32,33)" stroke-width="1.51"></path><path d="M1621,553L1616,414L1453,551Z" fill="rgb(129,19,22)" stroke="rgb(129,19,22)" stroke-width="1.51"></path><path d="M81,262L156,371L240,223Z" fill="rgb(203,45,46)" stroke="rgb(203,45,46)" stroke-width="1.51"></path><path d="M1110,1020L1245,1060L1145,951Z" fill="rgb(108,16,19)" stroke="rgb(108,16,19)" stroke-width="1.51"></path><path d="M996,1030L1245,1060L1110,1020Z" fill="rgb(108,16,19)" stroke="rgb(108,16,19)" stroke-width="1.51"></path><path d="M819,1041L1245,1060L996,1030Z" fill="rgb(112,17,20)" stroke="rgb(112,17,20)" stroke-width="1.51"></path><path d="M1468,38L1494,-114L1414,17Z" fill="rgb(166,30,36)" stroke="rgb(166,30,36)" stroke-width="1.51"></path><path d="M1671,289L1468,245L1539,374Z" fill="rgb(147,28,29)" stroke="rgb(147,28,29)" stroke-width="1.51"></path><path d="M1607,625L1621,553L1453,551Z" fill="rgb(120,18,21)" stroke="rgb(120,18,21)" stroke-width="1.51"></path><path d="M1607,625L1453,551L1502,683Z" fill="rgb(114,17,20)" stroke="rgb(114,17,20)" stroke-width="1.51"></path><path d="M1643,814L1607,625L1502,683Z" fill="rgb(108,16,19)" stroke="rgb(108,16,19)" stroke-width="1.51"></path><path d="M1245,1060L1318,1020L1286,896Z" fill="rgb(108,16,19)" stroke="rgb(108,16,19)" stroke-width="1.51"></path><path d="M1515,822L1323,821L1392,881Z" fill="rgb(108,16,19)" stroke="rgb(108,16,19)" stroke-width="1.51"></path><path d="M1488,879L1515,822L1392,881Z" fill="rgb(108,16,19)" stroke="rgb(108,16,19)" stroke-width="1.51"></path><path d="M1474,1024L1488,879L1392,881Z" fill="rgb(108,16,19)" stroke="rgb(108,16,19)" stroke-width="1.51"></path><path d="M819,1041L489,1062L1245,1060Z" fill="rgb(125,19,22)" stroke="rgb(125,19,22)" stroke-width="1.51"></path><path d="M556,994L489,1062L685,1006Z" fill="rgb(142,25,27)" stroke="rgb(142,25,27)" stroke-width="1.51"></path><path d="M353,1030L489,1062L487,871Z" fill="rgb(148,30,31)" stroke="rgb(148,30,31)" stroke-width="1.51"></path><path d="M373,-43L153,27L235,152Z" fill="rgb(215,47,51)" stroke="rgb(215,47,51)" stroke-width="1.51"></path><path d="M29,396L74,488L156,371Z" fill="rgb(195,37,41)" stroke="rgb(195,37,41)" stroke-width="1.51"></path><path d="M490,-152L319,-102L373,-43Z" fill="rgb(212,46,49)" stroke="rgb(212,46,49)" stroke-width="1.51"></path><path d="M295,742L293,919L487,871Z" fill="rgb(152,32,33)" stroke="rgb(152,32,33)" stroke-width="1.51"></path><path d="M185,776L295,742L230,607Z" fill="rgb(157,32,34)" stroke="rgb(157,32,34)" stroke-width="1.51"></path><path d="M1616,414L1671,289L1539,374Z" fill="rgb(142,25,27)" stroke="rgb(142,25,27)" stroke-width="1.51"></path><path d="M1747,303L1671,289L1753,341Z" fill="rgb(146,28,29)" stroke="rgb(146,28,29)" stroke-width="1.51"></path><path d="M44,676L230,607L197,560Z" fill="rgb(168,32,36)" stroke="rgb(168,32,36)" stroke-width="1.51"></path><path d="M44,676L185,776L230,607Z" fill="rgb(160,31,34)" stroke="rgb(160,31,34)" stroke-width="1.51"></path><path d="M1361,-103L1494,-114L1210,-181Z" fill="rgb(166,30,36)" stroke="rgb(166,30,36)" stroke-width="1.51"></path><path d="M1605,31L1494,-114L1468,38Z" fill="rgb(166,30,36)" stroke="rgb(166,30,36)" stroke-width="1.51"></path><path d="M1605,31L1468,38L1579,127Z" fill="rgb(162,30,35)" stroke="rgb(162,30,35)" stroke-width="1.51"></path><path d="M1750,131L1605,31L1579,127Z" fill="rgb(160,31,34)" stroke="rgb(160,31,34)" stroke-width="1.51"></path><path d="M153,986L353,1030L293,919Z" fill="rgb(156,32,34)" stroke="rgb(156,32,34)" stroke-width="1.51"></path><path d="M293,919L353,1030L487,871Z" fill="rgb(151,32,32)" stroke="rgb(151,32,32)" stroke-width="1.51"></path><path d="M156,371L74,488L197,560Z" fill="rgb(187,35,39)" stroke="rgb(187,35,39)" stroke-width="1.51"></path><path d="M81,262L240,223L108,132Z" fill="rgb(209,48,49)" stroke="rgb(209,48,49)" stroke-width="1.51"></path><path d="M108,132L240,223L235,152Z" fill="rgb(209,48,49)" stroke="rgb(209,48,49)" stroke-width="1.51"></path><path d="M153,27L108,132L235,152Z" fill="rgb(215,47,51)" stroke="rgb(215,47,51)" stroke-width="1.51"></path><path d="M319,-102L153,27L373,-43Z" fill="rgb(217,47,51)" stroke="rgb(217,47,51)" stroke-width="1.51"></path><path d="M185,776L213,902L295,742Z" fill="rgb(157,32,34)" stroke="rgb(157,32,34)" stroke-width="1.51"></path><path d="M45,865L213,902L185,776Z" fill="rgb(161,31,34)" stroke="rgb(161,31,34)" stroke-width="1.51"></path><path d="M1318,1020L1474,1024L1392,881Z" fill="rgb(108,16,19)" stroke="rgb(108,16,19)" stroke-width="1.51"></path><path d="M1601,898L1643,814L1515,822Z" fill="rgb(108,16,19)" stroke="rgb(108,16,19)" stroke-width="1.51"></path><path d="M1515,822L1643,814L1502,683Z" fill="rgb(108,16,19)" stroke="rgb(108,16,19)" stroke-width="1.51"></path><path d="M1245,1060L1474,1024L1318,1020Z" fill="rgb(108,16,19)" stroke="rgb(108,16,19)" stroke-width="1.51"></path><path d="M1759,464L1753,341L1616,414Z" fill="rgb(139,22,25)" stroke="rgb(139,22,25)" stroke-width="1.51"></path><path d="M1607,625L1722,631L1621,553Z" fill="rgb(116,17,20)" stroke="rgb(116,17,20)" stroke-width="1.51"></path><path d="M1601,898L1515,822L1488,879Z" fill="rgb(108,16,19)" stroke="rgb(108,16,19)" stroke-width="1.51"></path><path d="M1643,814L1722,631L1607,625Z" fill="rgb(108,16,19)" stroke="rgb(108,16,19)" stroke-width="1.51"></path><path d="M1474,1024L1601,898L1488,879Z" fill="rgb(108,16,19)" stroke="rgb(108,16,19)" stroke-width="1.51"></path><path d="M1671,289L1750,131L1579,127Z" fill="rgb(155,32,33)" stroke="rgb(155,32,33)" stroke-width="1.51"></path><path d="M1753,341L1671,289L1616,414Z" fill="rgb(143,26,27)" stroke="rgb(143,26,27)" stroke-width="1.51"></path><path d="M1759,464L1616,414L1621,553Z" fill="rgb(132,20,23)" stroke="rgb(132,20,23)" stroke-width="1.51"></path><path d="M-71,414L29,396L-70,205Z" fill="rgb(205,41,45)" stroke="rgb(205,41,45)" stroke-width="1.51"></path><path d="M81,262L29,396L156,371Z" fill="rgb(201,41,44)" stroke="rgb(201,41,44)" stroke-width="1.51"></path><path d="M74,488L44,676L197,560Z" fill="rgb(175,33,37)" stroke="rgb(175,33,37)" stroke-width="1.51"></path><path d="M319,-102L214,-128L153,27Z" fill="rgb(219,47,52)" stroke="rgb(219,47,52)" stroke-width="1.51"></path><path d="M153,27L67,-14L108,132Z" fill="rgb(221,47,52)" stroke="rgb(221,47,52)" stroke-width="1.51"></path><path d="M490,-152L214,-128L319,-102Z" fill="rgb(215,47,50)" stroke="rgb(215,47,50)" stroke-width="1.51"></path><path d="M1722,631L1759,464L1621,553Z" fill="rgb(123,19,21)" stroke="rgb(123,19,21)" stroke-width="1.51"></path><path d="M-94,563L44,676L74,488Z" fill="rgb(179,32,38)" stroke="rgb(179,32,38)" stroke-width="1.51"></path><path d="M1605,31L1639,-161L1494,-114Z" fill="rgb(166,30,36)" stroke="rgb(166,30,36)" stroke-width="1.51"></path><path d="M1747,303L1750,131L1671,289Z" fill="rgb(151,31,32)" stroke="rgb(151,31,32)" stroke-width="1.51"></path><path d="M1753,341L1750,131L1747,303Z" fill="rgb(150,31,31)" stroke="rgb(150,31,31)" stroke-width="1.51"></path><path d="M1790,-37L1750,131L1753,341Z" fill="rgb(157,32,34)" stroke="rgb(157,32,34)" stroke-width="1.51"></path><path d="M213,902L153,986L293,919Z" fill="rgb(158,32,34)" stroke="rgb(158,32,34)" stroke-width="1.51"></path><path d="M44,676L60,799L185,776Z" fill="rgb(163,30,35)" stroke="rgb(163,30,35)" stroke-width="1.51"></path><path d="M93,-118L67,-14L153,27Z" fill="rgb(224,46,53)" stroke="rgb(224,46,53)" stroke-width="1.51"></path><path d="M108,132L-70,205L81,262Z" fill="rgb(214,48,50)" stroke="rgb(214,48,50)" stroke-width="1.51"></path><path d="M1722,631L1744,792L1759,464Z" fill="rgb(113,17,20)" stroke="rgb(113,17,20)" stroke-width="1.51"></path><path d="M1643,814L1744,792L1722,631Z" fill="rgb(108,16,19)" stroke="rgb(108,16,19)" stroke-width="1.51"></path><path d="M1741,891L1744,792L1643,814Z" fill="rgb(108,16,19)" stroke="rgb(108,16,19)" stroke-width="1.51"></path><path d="M1741,891L1643,814L1601,898Z" fill="rgb(108,16,19)" stroke="rgb(108,16,19)" stroke-width="1.51"></path><path d="M45,865L153,986L213,902Z" fill="rgb(161,31,34)" stroke="rgb(161,31,34)" stroke-width="1.51"></path><path d="M353,1030L112,1034L489,1062Z" fill="rgb(154,32,33)" stroke="rgb(154,32,33)" stroke-width="1.51"></path><path d="M1790,-37L1639,-161L1605,31Z" fill="rgb(166,30,36)" stroke="rgb(166,30,36)" stroke-width="1.51"></path><path d="M1494,-114L1639,-161L1210,-181Z" fill="rgb(166,30,36)" stroke="rgb(166,30,36)" stroke-width="1.51"></path><path d="M1748,1036L1629,1014L1474,1024Z" fill="rgb(108,16,19)" stroke="rgb(108,16,19)" stroke-width="1.51"></path><path d="M1474,1024L1629,1014L1601,898Z" fill="rgb(108,16,19)" stroke="rgb(108,16,19)" stroke-width="1.51"></path><path d="M214,-128L93,-118L153,27Z" fill="rgb(222,46,52)" stroke="rgb(222,46,52)" stroke-width="1.51"></path><path d="M-84,-157L93,-118L214,-128Z" fill="rgb(226,46,53)" stroke="rgb(226,46,53)" stroke-width="1.51"></path><path d="M60,799L45,865L185,776Z" fill="rgb(163,30,35)" stroke="rgb(163,30,35)" stroke-width="1.51"></path><path d="M-67,761L45,865L60,799Z" fill="rgb(166,30,36)" stroke="rgb(166,30,36)" stroke-width="1.51"></path><path d="M-67,761L60,799L44,676Z" fill="rgb(166,30,36)" stroke="rgb(166,30,36)" stroke-width="1.51"></path><path d="M29,396L-71,414L74,488Z" fill="rgb(197,35,41)" stroke="rgb(197,35,41)" stroke-width="1.51"></path><path d="M-70,205L29,396L81,262Z" fill="rgb(208,44,48)" stroke="rgb(208,44,48)" stroke-width="1.51"></path><path d="M-42,105L108,132L-13,6Z" fill="rgb(223,46,52)" stroke="rgb(223,46,52)" stroke-width="1.51"></path><path d="M1629,1014L1741,891L1601,898Z" fill="rgb(108,16,19)" stroke="rgb(108,16,19)" stroke-width="1.51"></path><path d="M1744,792L1748,1036L1759,464Z" fill="rgb(108,16,19)" stroke="rgb(108,16,19)" stroke-width="1.51"></path><path d="M-13,6L108,132L67,-14Z" fill="rgb(223,46,53)" stroke="rgb(223,46,53)" stroke-width="1.51"></path><path d="M-42,105L-70,205L108,132Z" fill="rgb(219,47,51)" stroke="rgb(219,47,51)" stroke-width="1.51"></path><path d="M93,-118L-13,6L67,-14Z" fill="rgb(227,46,53)" stroke="rgb(227,46,53)" stroke-width="1.51"></path><path d="M-71,414L-94,563L74,488Z" fill="rgb(191,34,40)" stroke="rgb(191,34,40)" stroke-width="1.51"></path><path d="M-173,550L-94,563L-71,414Z" fill="rgb(188,33,40)" stroke="rgb(188,33,40)" stroke-width="1.51"></path><path d="M-94,563L-82,628L44,676Z" fill="rgb(173,31,37)" stroke="rgb(173,31,37)" stroke-width="1.51"></path><path d="M45,865L112,1034L153,986Z" fill="rgb(162,30,35)" stroke="rgb(162,30,35)" stroke-width="1.51"></path><path d="M153,986L112,1034L353,1030Z" fill="rgb(158,32,34)" stroke="rgb(158,32,34)" stroke-width="1.51"></path><path d="M-51,930L112,1034L45,865Z" fill="rgb(165,30,35)" stroke="rgb(165,30,35)" stroke-width="1.51"></path><path d="M1750,131L1790,-37L1605,31Z" fill="rgb(164,30,35)" stroke="rgb(164,30,35)" stroke-width="1.51"></path><path d="M1759,464L1790,-37L1753,341Z" fill="rgb(150,31,31)" stroke="rgb(150,31,31)" stroke-width="1.51"></path><path d="M1748,1036L1790,-37L1759,464Z" fill="rgb(131,20,23)" stroke="rgb(131,20,23)" stroke-width="1.51"></path><path d="M-82,628L-67,761L44,676Z" fill="rgb(166,30,36)" stroke="rgb(166,30,36)" stroke-width="1.51"></path><path d="M-156,816L-67,761L-229,648Z" fill="rgb(166,30,36)" stroke="rgb(166,30,36)" stroke-width="1.51"></path><path d="M1741,891L1748,1036L1744,792Z" fill="rgb(108,16,19)" stroke="rgb(108,16,19)" stroke-width="1.51"></path><path d="M1629,1014L1748,1036L1741,891Z" fill="rgb(108,16,19)" stroke="rgb(108,16,19)" stroke-width="1.51"></path><path d="M1245,1060L1748,1036L1474,1024Z" fill="rgb(108,16,19)" stroke="rgb(108,16,19)" stroke-width="1.51"></path><path d="M-94,563L-173,550L-82,628Z" fill="rgb(179,32,38)" stroke="rgb(179,32,38)" stroke-width="1.51"></path><path d="M-218,411L-173,550L-71,414Z" fill="rgb(195,34,41)" stroke="rgb(195,34,41)" stroke-width="1.51"></path><path d="M-218,411L-71,414L-70,205Z" fill="rgb(204,40,45)" stroke="rgb(204,40,45)" stroke-width="1.51"></path><path d="M-193,176L-70,205L-42,105Z" fill="rgb(218,47,51)" stroke="rgb(218,47,51)" stroke-width="1.51"></path><path d="M1790,-37L1799,-172L1639,-161Z" fill="rgb(166,30,36)" stroke="rgb(166,30,36)" stroke-width="1.51"></path><path d="M1639,-161L1799,-172L1210,-181Z" fill="rgb(166,30,36)" stroke="rgb(166,30,36)" stroke-width="1.51"></path><path d="M1748,1036L1799,-172L1790,-37Z" fill="rgb(148,30,31)" stroke="rgb(148,30,31)" stroke-width="1.51"></path><path d="M-156,816L-51,930L-67,761Z" fill="rgb(166,30,36)" stroke="rgb(166,30,36)" stroke-width="1.51"></path><path d="M-67,761L-51,930L45,865Z" fill="rgb(166,30,36)" stroke="rgb(166,30,36)" stroke-width="1.51"></path><path d="M-184,36L-193,176L-42,105Z" fill="rgb(222,46,52)" stroke="rgb(222,46,52)" stroke-width="1.51"></path><path d="M-184,36L-42,105L-13,6Z" fill="rgb(225,46,53)" stroke="rgb(225,46,53)" stroke-width="1.51"></path><path d="M-229,648L-67,761L-82,628Z" fill="rgb(166,30,36)" stroke="rgb(166,30,36)" stroke-width="1.51"></path><path d="M-238,221L-218,411L-70,205Z" fill="rgb(210,44,48)" stroke="rgb(210,44,48)" stroke-width="1.51"></path><path d="M-229,648L-82,628L-173,550Z" fill="rgb(175,31,38)" stroke="rgb(175,31,38)" stroke-width="1.51"></path><path d="M93,-118L-84,-157L-13,6Z" fill="rgb(229,45,54)" stroke="rgb(229,45,54)" stroke-width="1.51"></path><path d="M490,-152L-84,-157L214,-128Z" fill="rgb(220,47,52)" stroke="rgb(220,47,52)" stroke-width="1.51"></path><path d="M-177,-167L-84,-157L490,-152Z" fill="rgb(226,46,53)" stroke="rgb(226,46,53)" stroke-width="1.51"></path><path d="M-51,930L-59,1036L112,1034Z" fill="rgb(166,30,36)" stroke="rgb(166,30,36)" stroke-width="1.51"></path><path d="M112,1034L-59,1036L489,1062Z" fill="rgb(159,31,34)" stroke="rgb(159,31,34)" stroke-width="1.51"></path><path d="M-210,1000L-59,1036L-51,930Z" fill="rgb(166,30,36)" stroke="rgb(166,30,36)" stroke-width="1.51"></path><path d="M-193,176L-238,221L-70,205Z" fill="rgb(215,47,51)" stroke="rgb(215,47,51)" stroke-width="1.51"></path><path d="M-84,-157L-184,36L-13,6Z" fill="rgb(229,45,54)" stroke="rgb(229,45,54)" stroke-width="1.51"></path><path d="M-184,36L-238,221L-193,176Z" fill="rgb(219,47,51)" stroke="rgb(219,47,51)" stroke-width="1.51"></path><path d="M-238,221L-229,648L-218,411Z" fill="rgb(198,36,42)" stroke="rgb(198,36,42)" stroke-width="1.51"></path><path d="M-218,411L-229,648L-173,550Z" fill="rgb(185,33,39)" stroke="rgb(185,33,39)" stroke-width="1.51"></path><path d="M-229,648L-193,874L-156,816Z" fill="rgb(166,30,36)" stroke="rgb(166,30,36)" stroke-width="1.51"></path><path d="M-156,816L-193,874L-51,930Z" fill="rgb(166,30,36)" stroke="rgb(166,30,36)" stroke-width="1.51"></path><path d="M-84,-157L-177,-167L-184,36Z" fill="rgb(229,45,54)" stroke="rgb(229,45,54)" stroke-width="1.51"></path><path d="M-184,36L-177,-167L-238,221Z" fill="rgb(227,46,53)" stroke="rgb(227,46,53)" stroke-width="1.51"></path><path d="M1210,-181L-177,-167L490,-152Z" fill="rgb(207,42,46)" stroke="rgb(207,42,46)" stroke-width="1.51"></path><path d="M-229,648L-210,1000L-193,874Z" fill="rgb(166,30,36)" stroke="rgb(166,30,36)" stroke-width="1.51"></path><path d="M-193,874L-210,1000L-51,930Z" fill="rgb(166,30,36)" stroke="rgb(166,30,36)" stroke-width="1.51"></path></svg>