<?xml version="1.0" encoding="UTF-8"?>
<svg width="366px" height="250px" viewBox="0 0 366 250" version="1.1" xmlns="http://www.w3.org/2000/svg" xmlns:xlink="http://www.w3.org/1999/xlink">
    <!-- Generator: Sketch 64 (93537) - https://sketch.com -->
    <title>gamer 2</title>
    <desc>Created with Sketch.</desc>
    <g id="Page-1" stroke="none" stroke-width="1" fill="none" fill-rule="evenodd">
        <g id="gamer" fill-rule="nonzero">
            <path d="M313.346165,104.246273 C318.377019,109.522438 323.989804,110.364355 330.184521,106.772025 C327.584975,102.606066 326.966041,98.0746983 327.658769,93.3013388 L315.591277,93.3013388 C316.125971,97.4959628 315.982161,101.401682 313.346165,104.246273 Z" id="Path" fill="#FFB8B8"></path>
            <polygon id="Path" fill="#FFB8B8" points="333.271488 242.320661 339.726446 238.953306 342.532645 203.311983 342.532645 184.509091 327.658678 184.228512 331.868182 203.031405"></polygon>
            <polygon id="Path" fill="#FFB8B8" points="314.561157 242.320661 308.106612 238.953306 305.300413 203.311983 305.300413 184.509091 320.173967 184.228512 315.964463 203.031405"></polygon>
            <path d="M304.646343,188.438062 L320.36214,187.034864 L322.887897,172.72226 L325.97493,186.754227 L343.093938,185.631669 C343.46793,178.812711 342.517963,171.794545 340.287545,164.583736 L302.68188,163.741802 L304.646343,188.438062 Z" id="Path" fill="#2F2E41"></path>
            <path d="M288.311603,134.686397 L269.407231,120.129302 C269.211019,119.978209 268.995294,119.854318 268.765909,119.760988 L266.018194,118.643054 C263.811289,117.745153 259.607694,114.758661 261.657831,111.683459 C263.310723,109.20412 269.637669,113.645636 270.416004,115.291103 C270.66203,115.808902 271.065464,116.235661 271.568632,116.510372 L275.410368,118.615583 C275.503798,118.66678 275.600124,118.712505 275.69886,118.752525 L290.32538,124.680983 C291.147983,125.014404 292.080948,124.930208 292.830566,124.454901 L295.482331,122.773496 C296.248328,122.287804 297.204573,122.211122 298.038181,122.568539 C298.871788,122.925957 299.475501,123.671486 299.651785,124.56119 L300.528194,128.984421 C300.78874,130.299392 300.063014,131.610588 298.810388,132.088041 L290.968459,135.077107 C290.075141,135.417624 289.069071,135.269673 288.311603,134.686397 L288.311603,134.686397 Z" id="Path" fill="#FFB8B8"></path>
            <path d="M291.823107,124.080153 C297.05714,122.676636 296.507612,129.988831 300.500793,133.584285 L308.352033,127.385938 L303.80443,105.368831 L303.80443,105.368831 C301.330756,106.075594 299.333462,107.90451 298.412136,110.306537 L291.823107,124.080153 Z" id="Path" fill="#E72A2F"></path>
            <path d="M301.559314,165.145 L341.129455,165.145 C334.725409,147.887364 335.348876,130.137996 340.801674,112.050698 C340.990543,111.431252 340.712319,110.765024 340.139,110.463876 L328.781326,104.526913 C324.322921,107.427917 319.53126,106.536417 314.468723,102.56245 L302.120591,105.93012 C305.482099,126.118901 305.577574,145.89307 301.559314,165.145 Z" id="Path" fill="#E72A2F"></path>
            <path d="M311.453781,248.912165 L294.963331,249.611174 C293.476262,249.674208 292.181146,248.605378 291.960926,247.133355 L291.960926,247.133355 C291.738352,245.645616 292.68592,244.233311 294.146963,243.875174 L296.943979,243.189558 L307.937298,236.817616 C309.565967,238.504145 311.808686,239.930186 314.55038,241.144574 L314.582544,245.624587 C314.595052,247.384168 313.211829,248.837643 311.453781,248.912165 Z" id="Path" fill="#2F2E41"></path>
            <polygon id="Path" fill="#3F3D56" points="364.825207 249.668595 0.132644628 249.668595 0.132644628 248.767355 364.98843 248.767355"></polygon>
            <path d="M336.242021,248.661756 L352.732467,249.360764 C354.219536,249.423799 355.514652,248.354969 355.734872,246.882946 L355.734872,246.882946 C355.957446,245.395207 355.009877,243.982902 353.548835,243.624764 L350.751818,242.939149 L339.758496,236.567207 C338.129831,238.253736 335.887112,239.679777 333.145417,240.894165 L333.113254,245.374178 C333.100744,247.133762 334.48397,248.587238 336.242021,248.661756 Z" id="Path" fill="#2F2E41"></path>
            <circle id="Oval" fill="#FFB8B8" cx="320.362149" cy="89.3723884" r="8.98045868"></circle>
            <path d="M334.394112,162.338607 L331.427252,168.1075 C330.897692,169.137199 330.833361,170.34411 331.250461,171.424268 C331.66756,172.504426 332.526337,173.354883 333.610504,173.761446 L333.610504,173.761446 C334.759544,174.192334 336.041873,174.079948 337.098443,173.455755 C338.155013,172.831562 338.872257,171.762656 339.049347,170.548326 L340.287525,162.057963 L344.777748,140.72938 L344.497112,130.065087 L335.516669,130.065087 C338.579814,137.996893 337.060252,149.696426 334.394112,162.338607 Z" id="Path" fill="#FFB8B8"></path>
            <path d="M334.113471,131.187645 L346.180963,131.187645 L344.429351,117.95326 C343.946683,114.30643 341.647586,111.153193 338.323066,109.578421 L338.323066,109.578421 L334.113471,131.187645 Z" id="Path" fill="#E72A2F"></path>
            <path d="M329.90962,84.4258264 C330.272493,81.9995902 329.586167,79.5335353 328.022062,77.643595 C326.489909,75.8304959 323.921649,74.3464876 319.660769,75.046562 C310.364355,76.5740331 307.683612,84.3132066 308.594393,86.2595 C309.505174,88.2057934 312.296872,92.7175207 312.296872,92.7175207 C312.296872,92.7175207 310.247983,88.2513636 312.471694,87.3422769 C314.695405,86.4331901 323.301116,82.851905 326.304752,84.4652727 C328.035679,85.3343681 329.166345,87.0662705 329.265616,89.0005868 L329.90962,84.4258264 Z" id="Path" fill="#2F2E41"></path>
            <path d="M176.202302,47.0507603 L172.59162,48.8828554 C168.432665,40.6937647 162.92291,33.2644082 156.293975,26.9071033 C123.739616,-4.38955372 71.7931198,-3.36634298 40.4964545,29.1880124 C9.19978926,61.7423678 10.2230083,113.688868 42.7773678,144.985533 C48.9733557,150.954083 56.0716556,155.908392 63.8108058,159.665971 L62.0445661,163.309145 C28.3581214,146.952385 9.13963443,110.667083 14.5356436,73.6103259 C19.9316528,36.5535689 48.6999919,7.25585544 85.6522094,1.18512411 C122.604427,-4.88560721 159.234089,13.6681314 176.202302,47.0507603 Z" id="Path" fill="#E6E6E6"></path>
            <path d="M54.0464298,122.376025 C42.9870136,133.879875 43.3472988,152.171017 54.8511492,163.230433 C66.3549996,174.28985 84.6461412,173.929565 95.7055579,162.425715 L100.67988,157.251492 L59.0207521,117.201802 L54.0464298,122.376025 Z" id="Path" fill="#E6E6E6"></path>
            <path d="M56.2295083,114.263099 C53.7681176,116.829248 53.8483702,120.903538 56.408905,123.370769 L94.6185496,160.10424 C97.1831021,162.569714 101.260744,162.489395 103.726219,159.924843 C106.191693,157.36029 106.111375,153.282648 103.546822,150.817174 L65.3371777,114.083702 C62.7710276,111.622314 58.69674,111.702567 56.2295083,114.263099 L56.2295083,114.263099 Z" id="Path" fill="#535461"></path>
            <path d="M170.830587,84.2816694 L175.804909,79.1074463 C186.864322,67.6035957 186.504034,49.3124565 175.000184,38.2530434 C163.496333,27.1936303 145.205194,27.553918 134.145781,39.0577686 L129.171459,44.2319917 L170.830587,84.2816694 Z" id="Path" fill="#E6E6E6"></path>
            <path d="M126.12512,41.5586364 C123.663731,44.1247865 123.743984,48.1990741 126.304517,50.6663058 L164.514165,87.3997769 C167.079178,89.862214 171.154317,89.7805062 173.618563,87.2172308 C176.082809,84.6539554 176.003975,80.5787594 173.442438,78.1127066 L135.232789,41.3792355 C132.666639,38.917846 128.592349,38.9981004 126.12512,41.5586364 L126.12512,41.5586364 Z" id="Path" fill="#535461"></path>
            <path d="M142.243488,126.448901 L142.243488,123.464343 C142.243488,123.464343 155.267041,116.138603 165.848645,123.464343 L165.848645,126.177566 L142.243488,126.448901 Z" id="Path" fill="#535461"></path>
            <path d="M260.81193,126.448901 L260.81193,123.464343 C260.81193,123.464343 273.835463,116.138603 284.417087,123.464343 L284.417087,126.177566 L260.81193,126.448901 Z" id="Path" fill="#535461"></path>
            <path d="M181.314112,126.177579 L168.56188,126.177579 C168.56188,126.177579 165.305996,122.37905 154.453054,122.650372 C143.600112,122.921694 141.4295,126.177579 141.4295,126.177579 C141.4295,126.177579 130.712215,133.367661 128.270302,142.321335 C128.270302,142.321335 115.111107,181.798926 114.839785,212.729822 C114.568463,243.660719 126.506698,248.001897 132.747145,248.815868 C138.987591,249.629839 150.111855,248.544541 160.964802,221.140855 L165.577335,205.13276 C165.577335,205.13276 166.391306,195.636434 176.158955,201.605554 C185.926603,207.574674 194.608955,198.349669 194.608955,198.349669 L231.237649,198.349669 C231.237649,198.349669 243.447211,205.946731 254.571479,199.977612 C254.571479,199.977612 258.912657,194.279814 262.982512,213.543793 C262.982512,213.543793 275.463401,253.157045 294.72738,249.087182 C313.99136,245.017318 311.820769,211.915843 311.820769,211.915843 C311.820769,211.915843 309.243194,161.313983 298.661574,143.406624 C298.661574,143.406624 288.486938,124.82095 281.703847,124.006983 C281.703847,124.006983 267.052368,121.29376 261.35457,123.735657 L258.09869,126.44888 L181.314112,126.177579 Z" id="Path" fill="#E6E6E6"></path>
            <circle id="Oval" fill="#535461" cx="151.739818" cy="152.767293" r="23.605157"></circle>
            <circle id="Oval" fill="#535461" cx="274.920752" cy="152.767293" r="23.605157"></circle>
            <path d="M155.853083,147.50362 L152.705727,150.287401 C152.154313,150.772852 151.328034,150.772852 150.77662,150.287401 L147.623839,147.50362 C147.311973,147.228848 147.132303,146.833964 147.130037,146.418326 L147.130037,138.758855 C147.13153,137.953728 147.784632,137.301828 148.58976,137.301828 L154.898025,137.301828 C155.702705,137.300339 156.356241,137.951444 156.357748,138.756124 L156.357748,146.412905 C156.354293,146.832153 156.1704,147.229593 155.853083,147.50362 L155.853083,147.50362 Z" id="Path" fill="#E6E6E6"></path>
            <path d="M155.853083,158.028264 L152.705727,155.247198 C152.154311,154.761753 151.328037,154.761753 150.77662,155.247198 L147.623839,158.030983 C147.311973,158.305755 147.132303,158.700639 147.130035,159.116277 L147.130035,166.767607 C147.128546,167.572286 147.779648,168.225821 148.584326,168.227333 L154.898033,168.227333 C155.702713,168.228822 156.356249,167.577717 156.357756,166.773037 L156.357756,159.118992 C156.354299,158.699739 156.170403,158.302295 155.853083,158.028264 L155.853083,158.028264 Z" id="Path" fill="#E6E6E6"></path>
            <path d="M146.478855,156.885988 L149.262636,153.733207 C149.748087,153.181792 149.748087,152.355514 149.262636,151.804099 L146.478855,148.651322 C146.203874,148.339738 145.809121,148.160129 145.393558,148.157521 L137.742231,148.157521 C136.937104,148.159014 136.285204,148.812115 136.285204,149.617244 L136.285204,155.925508 C136.283715,156.730187 136.934817,157.383722 137.739496,157.385231 L145.39626,157.385231 C145.811809,157.380821 146.205701,157.199176 146.478855,156.885988 L146.478855,156.885988 Z" id="Path" fill="#E6E6E6"></path>
            <path d="M157.003492,156.885988 L154.22514,153.7305 C153.738498,153.179536 153.738498,152.352357 154.22514,151.801393 L157.008926,148.648612 C157.283697,148.336745 157.678581,148.157076 158.094219,148.154807 L165.74555,148.154807 C166.55023,148.153318 167.203766,148.804423 167.205275,149.609103 L167.205275,155.922822 C167.206762,156.727501 166.555658,157.381034 165.750979,157.382541 L158.096934,157.382541 C157.678017,157.381916 157.279638,157.201004 157.003492,156.885988 L157.003492,156.885988 Z" id="Path" fill="#E6E6E6"></path>
            <circle id="Oval" fill="#535461" cx="183.756008" cy="178.543041" r="17.0933884"></circle>
            <circle id="Oval" fill="#535461" cx="242.904562" cy="178.543041" r="17.0933884"></circle>
            <circle id="Oval" fill="#E6E6E6" cx="183.756008" cy="178.543041" r="11.395595"></circle>
            <path d="M183.756062,186.411384 C180.573595,186.411384 177.704492,184.494318 176.486613,181.554103 C175.268733,178.613887 175.941918,175.229551 178.192261,172.979207 C180.442605,170.728862 183.82694,170.055675 186.767157,171.273553 C189.707373,172.491431 191.624442,175.360533 191.624442,178.543 C191.619498,182.886538 188.0996,186.406438 183.756062,186.411384 Z M183.756062,171.21726 C179.710168,171.21726 176.430322,174.497106 176.430322,178.543 C176.430322,182.588894 179.710168,185.86874 183.756062,185.86874 C187.801956,185.86874 191.081802,182.588894 191.081802,178.543 C191.077199,174.499014 187.800048,171.221863 183.756062,171.21726 L183.756062,171.21726 Z" id="Shape" fill="#535461"></path>
            <circle id="Oval" fill="#E6E6E6" cx="242.904562" cy="178.543041" r="11.395595"></circle>
            <path d="M242.904607,186.411384 C239.722141,186.411384 236.853039,184.494315 235.635161,181.5541 C234.417283,178.613884 235.090469,175.229549 237.340812,172.979205 C239.591156,170.728861 242.975491,170.055676 245.915707,171.273554 C248.855923,172.491432 250.772992,175.360533 250.772992,178.543 C250.768,182.886519 247.248127,186.406393 242.904607,186.411384 Z M242.904607,171.21726 C238.858713,171.21726 235.578868,174.497106 235.578868,178.543 C235.578868,182.588894 238.858713,185.86874 242.904607,185.86874 C246.950502,185.86874 250.230347,182.588894 250.230347,178.543 C250.225745,174.499014 246.948594,171.221863 242.904607,171.21726 L242.904607,171.21726 Z" id="Shape" fill="#535461"></path>
            <circle id="Oval" fill="#535461" cx="213.87293" cy="180.442306" r="4.88382645"></circle>
            <circle id="Oval" fill="#535461" cx="206.408822" cy="164.141186" r="1.06630165"></circle>
            <circle id="Oval" fill="#535461" cx="210.402707" cy="164.141186" r="1.06630165"></circle>
            <circle id="Oval" fill="#535461" cx="209.870909" cy="169.201368" r="1.06630165"></circle>
            <circle id="Oval" fill="#535461" cx="213.601607" cy="169.318037" r="1.08529339"></circle>
            <circle id="Oval" fill="#535461" cx="217.326884" cy="169.201368" r="1.06630165"></circle>
            <circle id="Oval" fill="#535461" cx="208.272814" cy="166.805587" r="1.06630165"></circle>
            <circle id="Oval" fill="#535461" cx="211.702343" cy="166.876124" r="1.08529339"></circle>
            <circle id="Oval" fill="#535461" cx="215.22955" cy="166.876124" r="1.08529339"></circle>
            <circle id="Oval" fill="#535461" cx="218.924975" cy="166.805587" r="1.06630165"></circle>
            <circle id="Oval" fill="#535461" cx="213.601607" cy="164.162888" r="1.08529339"></circle>
            <circle id="Oval" fill="#535461" cx="217.400136" cy="164.162888" r="1.08529339"></circle>
            <circle id="Oval" fill="#535461" cx="220.523074" cy="164.141186" r="1.06630165"></circle>
            <path d="M173.30995,128.490045 C172.264952,128.491191 171.418098,129.338043 171.41695,130.383041 L171.41695,136.081004 C171.418098,137.126003 172.264952,137.972854 173.30995,137.974 L174.666645,137.974 C175.711643,137.972854 176.558495,137.126002 176.55964,136.081004 L176.55964,130.383041 C176.558495,129.338043 175.711643,128.491191 174.666645,128.490045 L173.30995,128.490045 Z" id="Path" fill="#535461"></path>
            <path d="M252.536426,128.490045 C251.491399,128.491123 250.644507,129.338015 250.64343,130.383041 L250.64343,136.081004 C250.644507,137.12603 251.491399,137.972923 252.536426,137.974 L253.893124,137.974 C254.93815,137.972923 255.785042,137.12603 255.78612,136.081004 L255.78612,130.383041 C255.785042,129.338015 254.93815,128.491123 253.893124,128.490045 L252.536426,128.490045 Z" id="Path" fill="#535461"></path>
            <circle id="Oval" fill="#E6E6E6" cx="275.192074" cy="138.38714" r="6.5117686"></circle>
            <circle id="Oval" fill="#E6E6E6" cx="261.35457" cy="152.224649" r="6.5117686"></circle>
            <circle id="Oval" fill="#E6E6E6" cx="289.572227" cy="151.410678" r="6.5117686"></circle>
            <circle id="Oval" fill="#E6E6E6" cx="276.277368" cy="165.790831" r="6.5117686"></circle>
            <path d="M185.587397,124.691541 C182.557819,124.694984 180.10272,127.150084 180.099277,130.179661 L180.099277,154.462975 C180.102722,157.492552 182.55782,159.94765 185.587397,159.951095 L241.344277,159.951095 C244.373853,159.94765 246.828951,157.492552 246.832397,154.462975 L246.832397,130.179661 C246.828954,127.150084 244.373854,124.694984 241.344277,124.691541 L185.587397,124.691541 Z" id="Path" fill="#535461"></path>
            <path d="M279.615975,141.371661 L270.785504,141.371661 L275.048521,134.06381 L279.615975,141.371661 Z M271.730368,140.829021 L278.636669,140.829021 L275.064417,135.113318 L271.730368,140.829021 Z" id="Shape" fill="#535461"></path>
            <path d="M265.017492,155.480488 L257.691756,155.480488 L257.691756,148.968723 L265.017492,148.968723 L265.017492,155.480488 Z M258.234401,154.937843 L264.474855,154.937843 L264.474855,149.511368 L258.234401,149.511368 L258.234401,154.937843 Z" id="Shape" fill="#535461"></path>
            <path d="M289.572285,155.480488 C287.32458,155.480488 285.50245,153.658365 285.50245,151.41066 C285.50245,149.162955 287.324566,147.340818 289.572271,147.340818 C291.819976,147.340818 293.64212,149.162927 293.64212,151.410632 C293.639626,153.65731 291.818962,155.477983 289.572285,155.480488 L289.572285,155.480488 Z M289.572285,147.883426 C288.145661,147.883426 286.85951,148.742801 286.313564,150.060829 C285.767618,151.378858 286.069391,152.895975 287.078166,153.904751 C288.086942,154.913527 289.604059,155.2153 290.922088,154.669353 C292.240117,154.123407 293.099492,152.837257 293.099492,151.410632 C293.097287,149.463524 291.519394,147.88563 289.572285,147.883426 Z" id="Shape" fill="#535461"></path>
            <polygon id="Rectangle" fill="#535461" transform="translate(276.209594, 165.790789) rotate(-45.000000) translate(-276.209594, -165.790789) " points="275.938299 161.474056 276.48089 161.474056 276.48089 170.107523 275.938299 170.107523"></polygon>
            <polygon id="Rectangle" fill="#535461" transform="translate(276.277427, 165.722962) rotate(-43.734000) translate(-276.277427, -165.722962) " points="271.959629 165.451601 280.595224 165.451601 280.595224 165.994324 271.959629 165.994324"></polygon>
            <path d="M57.6741612,62.6918306 C42.8598926,66.7760083 26.6376653,69.8505083 20.8249545,65.0808017 C24.0074504,59.7826322 25.8430455,54.5605537 25.9987603,49.4333719 C26.0338482,47.087433 26.9839983,44.8480119 28.6466157,43.1926074 C30.8770089,41.037892 33.9757603,40.0309565 37.046719,40.4630041 L40.8913884,41.0025207 C41.0208099,41.0206832 41.149551,41.0412989 41.2776116,41.0643678 C45.0612474,41.7811737 47.9683023,44.8279149 48.506876,48.6410041 C49.3168884,54.2006653 52.0407645,59.0137314 57.6741612,62.6918306 Z" id="Path" fill="#2F2E41"></path>
            <path d="M71.9643058,115.437413 L77.7235248,116.624955 C78.6143493,116.808638 79.3752337,117.383424 79.795431,118.19011 C80.2156284,118.996796 80.2505292,119.949742 79.8904669,120.785004 L79.8904669,120.785004 C79.542812,121.591485 78.8618221,122.207062 78.0244465,122.471784 C77.1870709,122.736506 76.2759847,122.624235 75.5279256,122.164145 L66.7183099,116.745835 L51.7549339,81.5697645 L59.5051818,79.3279421 L71.9643058,115.437413 Z" id="Path" fill="#A0616A"></path>
            <polygon id="Path" fill="#A0616A" points="30.9376033 161.595041 26.5768595 162.863223 23.2760331 156.046281 26.6326446 154.297107"></polygon>
            <polygon id="Path" fill="#A0616A" points="28.7219008 190.802893 23.3714876 189.386364 24.2090909 180.194215 28.8136364 180.477686"></polygon>
            <path d="M29.279876,155.222554 L23.6130496,158.951893 L1.81783058,134.298798 C0.860685262,133.216147 0.435252645,131.76356 0.657094599,130.335608 C0.878936552,128.907657 1.72501869,127.652608 2.96551653,126.911376 L30.1169587,110.687661 L34.2755537,122.633868 L20.1376942,135.901136 L29.279876,155.222554 Z" id="Path" fill="#2F2E41"></path>
            <path d="M34.0521942,168.127368 C34.0379986,168.145825 34.0237534,168.16426 34.0094587,168.182674 C33.6472934,170.303269 33.0111983,172.237483 31.5906612,173.637938 C30.7187349,175.604412 28.509001,176.602396 26.4571901,175.956372 L26.4571901,175.956372 C24.5296382,175.349449 23.3013219,173.463035 23.5259917,171.454719 L24.5849091,161.989719 C27.1250496,161.405789 29.062376,159.961273 30.0429545,157.150822 L32.5116322,158.832326 C33.9880733,159.82991 34.9893936,161.390674 35.280746,163.14856 C35.5720985,164.906447 35.1278503,166.706799 34.0521942,168.127368 L34.0521942,168.127368 Z" id="Path" fill="#2F2E41"></path>
            <circle id="Oval" fill="#A0616A" cx="36.7386529" cy="51.9427934" r="8.7221281"></circle>
            <path d="M44.2920207,65.8859587 L30.5416529,77.2739752 L29.4707231,72.5863388 L31.8707727,68.9278554 C32.5368264,65.3384174 32.1068058,61.3802107 30.9622893,57.1816198 L39.933438,57.1898636 C40.3207231,60.5827727 41.6416529,63.542657 44.2920207,65.8859587 Z" id="Path" fill="#A0616A"></path>
            <path d="M48.1632851,95.7577934 L29.6001942,101.412339 L28.1560124,94.8100826 C24.6772107,90.1391488 23.1649835,85.8757851 25.4409091,82.3975083 L24.2956033,77.1615579 C27.5810496,74.5748058 30.1646116,71.9281405 31.583281,69.1820413 L43.0044669,64.7192727 L51.4005992,65.235876 L53.879938,73.5444711 L48.1632851,95.7577934 Z" id="Path" fill="#E72A2F"></path>
            <path d="M61.3510868,80.2571198 C57.3941516,80.2151849 53.5216381,81.4017302 50.2674008,83.6531818 L51.400595,65.2358636 L51.400595,65.2358636 C53.7407335,65.5483738 55.7424307,67.072219 56.6665868,69.2447397 L61.3510868,80.2571198 Z" id="Path" fill="#E72A2F"></path>
            <path d="M29.2218099,182.677678 L23.3299256,181.227678 L24.197157,131.164455 L32.1088182,122.500525 L30.337814,111.516826 L29.1918223,99.2122438 L48.5174421,94.420219 C55.049562,106.28088 58.9977355,117.064521 53.234562,123.800364 L29.2218099,182.677678 Z" id="Path" fill="#2F2E41"></path>
            <path d="M27.8685455,199.58076 C27.8421212,199.591121 27.8156625,199.601417 27.7891694,199.611649 C26.0783388,201.598194 24.1986157,203.217988 21.8352934,203.787483 C19.6890601,205.292762 16.754638,204.946059 15.0183017,202.982054 L15.0183017,202.982054 C13.3871194,201.136981 13.2901369,198.395391 14.7868678,196.439669 L21.8407934,187.222574 C24.8599711,188.20924 27.7905744,187.918512 30.5806446,185.600318 L32.1015207,188.907475 C33.0161642,190.876944 33.0807928,193.135848 32.2802487,195.15439 C31.4797046,197.172931 29.8844186,198.773521 27.8685455,199.58076 Z" id="Path" fill="#2F2E41"></path>
            <path d="M6.34540909,121.459103 L1.17388843,125.886897 C0.301683618,126.63367 -0.128182265,127.77453 0.0343630678,128.911187 C0.1969084,130.047845 0.929299077,131.022499 1.97584711,131.494884 L1.97584711,131.494884 C3.58431672,132.220905 5.48028311,131.577144 6.31414876,130.021847 L10.0538802,123.04664 L27.2041694,91.7495331 L20.7539339,90.5370537 L6.34540909,121.459103 Z" id="Path" fill="#A0616A"></path>
            <path d="M28.2375579,92.6287149 C24.8877479,91.6174876 21.7499545,91.0220289 19.316405,91.8079421 C19.8265331,85.4954174 20.8778967,79.8563347 24.2955992,77.1615496 L29.1541074,77.7323554 L28.2375579,92.6287149 Z" id="Path" fill="#E72A2F"></path>
            <path d="M46.4755785,49.9203058 L27.8205785,48.7724876 L28.0501405,45.0414959 C34.5621846,40.6505124 40.7805179,41.0331185 46.7051405,46.189314 L46.4755785,49.9203058 Z" id="Path" fill="#2F2E41"></path>
        </g>
    </g>
</svg>