<?xml version="1.0" encoding="UTF-8"?>
<svg width="32px" height="32px" viewBox="0 0 32 32" version="1.1" xmlns="http://www.w3.org/2000/svg" xmlns:xlink="http://www.w3.org/1999/xlink">
    <!-- Generator: Sketch 64 (93537) - https://sketch.com -->
    <title>Slice 1</title>
    <desc>Created with Sketch.</desc>
    <g id="Page-1" stroke="none" stroke-width="1" fill="none" fill-rule="evenodd">
        <g id="nintendo-switch" fill="#000000" fill-rule="nonzero">
            <path d="M13.7986043,0 L5.08371064,0 C2.28085106,0 0,2.28085106 0,5.08371064 L0,26.8709447 C0,29.6738043 2.28085106,31.9546553 5.08371064,31.9546553 L13.7986043,31.9546553 C14.200034,31.9546553 14.5248681,31.6298213 14.5248681,31.2283915 L14.5248681,0.72626383 C14.5248681,0.324834043 14.199966,0 13.7986043,0 Z M7.26243404,13.0723404 C5.25957447,13.0723404 3.63125106,11.4432681 3.63125106,9.44115745 C3.63125106,7.43904681 5.25964255,5.80997447 7.26243404,5.80997447 C9.26522553,5.80997447 10.893617,7.43897872 10.893617,9.44115745 C10.893617,11.4433362 9.26522553,13.0723404 7.26243404,13.0723404 Z" id="Shape"></path>
            <path d="M26.8709447,0 L18.1560511,0 C17.7546213,0 17.4297872,0.324834043 17.4297872,0.72626383 L17.4297872,31.2283915 C17.4297872,31.6298213 17.7546213,31.9546553 18.1560511,31.9546553 L26.8709447,31.9546553 C29.6738043,31.9546553 31.9546553,29.6738043 31.9546553,26.8709447 L31.9546553,5.08371064 C31.9546553,2.28085106 29.6737362,0 26.8709447,0 Z M24.6922213,21.787234 C22.6893617,21.787234 21.0610383,20.1581617 21.0610383,18.1560511 C21.0610383,16.1539404 22.6894298,14.5248681 24.6922213,14.5248681 C26.6950809,14.5248681 28.3234043,16.1539404 28.3234043,18.1560511 C28.3234043,20.1581617 26.6950128,21.787234 24.6922213,21.787234 Z" id="Shape"></path>
        </g>
    </g>
</svg>